<?xml version="1.0" encoding="UTF-8" standalone="no"?>
<svg
   class="img-fluid"
   id="outputsvg"
   width="365.54523"
   height="362.88657"
   viewBox="0 0 3655.4523 3628.8657"
   version="1.1"
   xmlns:xlink="http://www.w3.org/1999/xlink"
   xmlns="http://www.w3.org/2000/svg"
   xmlns:svg="http://www.w3.org/2000/svg">
  <g
     id="l6WkdPSU8doGb8vN264XucQ"
     fill="#ffffff"
     transform="translate(-303.83242,-361.13438)">
    <g
       id="g1"
       fill="#ffffff">
      <path
         id="p19JpX4R22"
         d="m 465,3966 c -62,-28 -111,-77 -139,-136 -28,-60 -30,-202 -3,-272 25,-64 99,-132 168,-152 211,-63 393,54 407,260 9,140 -44,244 -151,295 -54,25 -74,29 -147,29 -68,0 -95,-5 -135,-24 z"
         fill="#ffffff" />
      <path
         id="poovDKotY"
         d="m 3560,3981 c -89,-29 -161,-102 -186,-187 -20,-69 -15,-176 11,-242 23,-56 102,-126 166,-147 38,-13 73,-16 133,-13 94,5 141,26 197,85 57,59 72,98 77,194 7,144 -33,226 -139,284 -47,25 -66,30 -144,32 -49,1 -101,-1 -115,-6 z"
         fill="#ffffff" />
      <path
         id="peNAF9XPP"
         d="M 1564,3886 C 1080,3723 726,3412 505,2955 354,2643 303,2361 329,1994 c 17,-246 56,-395 156,-599 94,-193 160,-286 227,-321 44,-23 173,-16 210,11 42,31 58,74 58,157 0,71 -1,75 -65,188 -36,63 -79,149 -96,190 -30,71 -91,291 -84,299 2,2 76,0 163,-4 l 160,-7 7,-56 c 36,-292 217,-578 473,-749 l 82,-55 V 944 c 0,-57 -2,-104 -4,-104 -15,0 -130,59 -221,114 -107,64 -112,66 -178,66 -79,0 -120,-15 -162,-59 -25,-27 -30,-41 -33,-96 -5,-82 1,-106 39,-150 41,-46 180,-138 285,-186 108,-51 302,-115 422,-140 142,-30 475,-37 632,-15 263,39 457,109 669,242 154,96 171,119 171,223 0,83 -12,111 -65,153 -24,19 -44,24 -113,27 l -84,3 -109,-67 C 2599,790 2395,726 2135,725 h -140 l -3,106 -3,106 163,6 c 90,3 192,12 228,20 161,36 350,137 480,255 172,157 301,398 325,609 11,97 -6,89 178,85 89,-2 163,-5 164,-6 1,-1 -5,-32 -13,-69 -30,-143 -79,-262 -188,-452 -42,-73 -46,-85 -46,-148 0,-77 14,-112 60,-151 28,-23 40,-26 111,-26 94,0 123,12 172,72 81,101 193,316 241,463 102,314 110,708 21,1041 -49,188 -154,411 -279,594 -109,160 -345,374 -543,494 -94,56 -256,130 -368,167 -86,28 -114,33 -200,34 -89,0 -104,-3 -133,-23 -69,-50 -67,-34 -67,-562 0,-442 1,-478 19,-524 26,-67 76,-120 176,-184 238,-154 371,-379 371,-628 1,-436 -452,-804 -874,-710 -160,36 -334,148 -431,277 -273,363 -189,795 205,1055 53,35 113,82 133,105 73,80 71,60 74,589 l 3,475 -23,45 c -36,70 -74,90 -172,90 -69,0 -100,-7 -212,-44 z m 56,-628 c 0,-123 -5,-239 -10,-259 -5,-19 -24,-48 -41,-65 l -30,-29 -306,-3 -306,-3 28,38 c 130,175 212,260 354,366 80,60 280,176 304,177 4,0 7,-100 7,-222 z m 1082,199 c 202,-90 403,-254 574,-470 l 64,-82 -291,-3 c -322,-3 -339,0 -383,61 -20,27 -21,44 -24,273 -2,134 -1,244 2,244 3,0 29,-11 58,-23 z M 1149,2478 c -18,-35 -43,-92 -55,-128 l -23,-65 -172,-3 -172,-2 6,59 c 4,33 14,92 23,131 l 16,70 h 204 204 z m 2351,23 c 10,-39 23,-110 34,-183 l 5,-38 h -179 -179 l -15,54 c -13,43 -49,129 -84,199 -2,4 89,7 202,7 h 205 z"
         fill="#ffffff" />
      <path
         id="pEZBo3pRS"
         d="m 1978,2489 c -70,-16 -162,-71 -220,-130 -98,-100 -138,-207 -138,-364 0,-157 41,-264 140,-366 92,-94 209,-139 366,-139 164,0 272,40 371,136 101,99 143,209 143,374 0,52 -5,115 -11,139 -37,160 -178,303 -343,347 -57,15 -249,17 -308,3 z m 15,-550 c 29,-15 57,-50 57,-73 0,-25 -63,-86 -90,-86 -30,0 -80,53 -80,85 0,30 49,85 75,85 9,0 26,-5 38,-11 z"
         fill="#ffffff" />
      <path
         id="pnHe0oZfd"
         d="M 473,1004 C 419,985 354,921 327,862 296,795 297,656 329,585 377,476 455,430 594,430 c 120,0 160,14 223,76 64,64 88,133 81,233 -10,128 -80,230 -185,265 -58,20 -183,20 -240,0 z"
         fill="#ffffff" />
      <path
         id="pqjH9o5GR"
         d="m 3543,1004 c -60,-22 -126,-84 -154,-146 -34,-75 -34,-212 -1,-280 29,-59 99,-123 148,-137 60,-17 218,-14 262,4 47,20 108,78 135,130 29,56 35,182 13,259 -22,74 -88,143 -161,169 -61,21 -183,22 -242,1 z"
         fill="#ffffff" />
    </g>
  </g>
</svg>
